<svg width="320" height="803" viewBox="0 0 320 803" fill="none" xmlns="http://www.w3.org/2000/svg">
<path d="M0 174.5C7.7 151.1 15.5 127.8 23 104.4C26.7 93.1 32.6 88.1 46 88.8C59.9 89.5 74 85.5 88 83.3C98.7 81.6 103.8 85.7 105.6 96.6C109.7 122.7 117.7 147.9 113.5 175.4C109.9 198.4 125.4 215.7 148.7 219.9C165.4 222.9 182.3 222.3 198.4 217.6C210.8 213.9 216.5 218.3 221.1 229.1C234.1 260 230.9 290.4 221.7 321.6C212 354.3 208.7 387.9 213.4 421.9C215.3 435.4 216.8 449 215.7 462.5C215.1 469.8 214.9 479.5 210.5 483.6C192 500.8 196.9 522.8 195.5 543.6C193.9 566.3 193.5 588.9 184.5 610.8C176.9 629.1 175.7 649.6 176 669.3C176.4 697 166.3 722.6 162.5 749.4C162.2 751.7 161.6 754.4 157.2 754.7C154 737.1 156.8 719.5 158 702.1C162.6 636.1 173.3 570 165.6 504.1C161.8 471.8 156.1 442.4 168.7 410.5C175.4 393.6 166.6 374.1 159.1 356.8C154.6 346.4 149.7 346.4 141.1 353.3C109.7 378.7 97.8 419 114.4 460.7C122.5 481.1 119.4 498 110 515.2C104.4 525.4 102.7 535.5 102.6 546.9C102.5 564.8 102.2 583 99.1 600.5C87.5 665 81.1 730.2 72.9 795.2C72.6 797.6 71.4 799.8 70.6 802.2C68.1 802.2 65.6 802.2 63.2 802.2C63.8 765.8 57.9 729.1 63.8 693C70.1 654.3 72.9 615.7 70.7 576.7C66.7 502.9 70.7 429.1 72.6 355.4C73.2 330.7 60.7 314.3 52.7 294.2C45 298.4 45.4 304.3 47.3 308.2C54.4 322.8 49.4 338 50.7 351.6C53.9 384.9 44.5 413.2 34.7 443.1C30 457.5 32 474 27.4 488.5C20.8 509.4 16.6 530 18.8 552.1C20.7 571.4 18.4 590.6 10.2 608.9C3.8 590.4 8.1 570.8 0 553.3C0 545.9 0 538.4 0 531C7.1 522.5 9.2 512.3 8.5 501.7C6.4 466.4 8.3 431.1 12.1 396.1C14.1 377.2 8.2 361.3 0 345.4C0 341.7 0 338 0 334.3C21.8 302.1 18.3 269.9 0 237.7C0 216.6 0 195.6 0 174.5Z" fill="black"/>
<path d="M319.4 29.7C314.9 33.9 310 37.7 306 42.3C291.6 59 276.5 71.8 252.1 61.1C239 55.4 231.6 61.6 228.8 75.6C222.2 108.9 218.4 142.4 221.3 176.4C222.8 193.5 215.8 204.4 198.9 206.3C184.8 207.9 170.5 208.5 156.3 208.1C134.9 207.4 121.6 192 125.7 170.7C131.4 140.9 117.7 113.6 117.2 84.7C117 75.7 110.5 72.2 101.6 73.3C89.4 74.8 77.1 76.1 64.8 77.7C45.7 80.3 28.4 78.9 13.5 63.8C6.2 56.4 6.1 52 13.7 46.3C23.6 38.9 33.3 31.3 43.4 24.3C58.3 13.8 73.1 11 89.8 21.7C101.8 29.4 115 33.7 122.1 13.9C125 5.7 134.8 4.6 141.1 0C162.1 0 183.2 0 204.2 0C209.6 8.2 219.5 12 224.4 21C227.8 27.1 233.6 26.2 239 23.4C252.6 16.4 267.4 11.3 278.5 0C282.2 0 285.9 0 289.6 0C297.1 10.7 309 15.4 319.3 22.3C319.4 24.8 319.4 27.2 319.4 29.7Z" fill="black"/>
</svg>
