<svg width="30" height="30" viewBox="0 0 30 30" fill="none" xmlns="http://www.w3.org/2000/svg">
<path d="M27.1875 7.5H26.25V6.5625C26.25 5.00918 24.9908 3.75 23.4375 3.75H22.5V2.8125C22.5 1.25918 21.2408 0 19.6875 0H2.8125C1.25918 0 0 1.25918 0 2.8125V19.6875C0 21.2408 1.25918 22.5 2.8125 22.5H3.75V23.4375C3.75 24.9908 5.00918 26.25 6.5625 26.25H7.5V27.1875C7.5 28.7408 8.75918 30 10.3125 30H27.1875C28.7408 30 30 28.7408 30 27.1875V10.3125C30 8.75918 28.7408 7.5 27.1875 7.5ZM1.875 15.5531V2.8125C1.875 2.29471 2.29471 1.875 2.8125 1.875H19.6875C20.2053 1.875 20.625 2.29471 20.625 2.8125V11.8031L18.4781 9.65625C18.1124 9.29274 17.5219 9.29274 17.1562 9.65625L13.125 13.6781L9.10312 9.64687C8.73744 9.28336 8.14693 9.28336 7.78125 9.64687L1.875 15.5531ZM6.5625 24.375C6.04471 24.375 5.625 23.9553 5.625 23.4375V22.5H19.6875C21.2408 22.5 22.5 21.2408 22.5 19.6875V5.625H23.4375C23.9553 5.625 24.375 6.04471 24.375 6.5625V23.4375C24.375 23.9553 23.9553 24.375 23.4375 24.375H6.5625ZM28.125 27.1875C28.125 27.7053 27.7053 28.125 27.1875 28.125H10.3125C9.79471 28.125 9.375 27.7053 9.375 27.1875V26.25H23.4375C24.9908 26.25 26.25 24.9908 26.25 23.4375V9.375H27.1875C27.7053 9.375 28.125 9.79471 28.125 10.3125V27.1875Z" fill="#E9E0D2"/>
</svg>
