<svg width="35" height="35" viewBox="0 0 35 35" fill="none" xmlns="http://www.w3.org/2000/svg">
<path d="M17.5 0C7.82694 0 0 7.82763 0 17.5C0 27.1731 7.82763 35 17.5 35C27.1731 35 35 27.1724 35 17.5C35 7.82694 27.1724 0 17.5 0ZM17.5 32.2656C9.33837 32.2656 2.73438 25.6611 2.73438 17.5C2.73438 9.33837 9.33892 2.73438 17.5 2.73438C25.6616 2.73438 32.2656 9.33892 32.2656 17.5C32.2656 25.6616 25.6611 32.2656 17.5 32.2656Z" fill="#27292B"/>
<path d="M17.5 8.80994C16.7449 8.80994 16.1328 9.42203 16.1328 10.1771V18.9813C16.1328 19.7364 16.7449 20.3485 17.5 20.3485C18.2551 20.3485 18.8672 19.7364 18.8672 18.9813V10.1771C18.8672 9.42203 18.2551 8.80994 17.5 8.80994Z" fill="#27292B"/>
<path d="M17.5 25.7141C18.5194 25.7141 19.3457 24.8877 19.3457 23.8684C19.3457 22.849 18.5194 22.0227 17.5 22.0227C16.4806 22.0227 15.6543 22.849 15.6543 23.8684C15.6543 24.8877 16.4806 25.7141 17.5 25.7141Z" fill="#27292B"/>
</svg>
