<svg width="18" height="18" viewBox="0 0 18 18" fill="none" xmlns="http://www.w3.org/2000/svg">
<path d="M17.3525 14.3546L11.8689 8.87741L17.3525 3.40019C18.1079 2.64461 18.1079 1.41819 17.3544 0.660559C16.5971 -0.0989304 15.371 -0.0969762 14.6137 0.658606L9.12632 6.13973L3.63895 0.658606C2.88162 -0.0969762 1.65553 -0.0989304 0.898201 0.660559C0.142821 1.4181 0.14282 2.64451 0.900152 3.40019L6.38371 8.87741L0.900152 14.3546C0.14282 15.1102 0.142821 16.3366 0.898201 17.0943C1.27594 17.4739 1.7737 17.6619 2.2696 17.6619C2.7655 17.6619 3.26131 17.472 3.63905 17.0961L9.12641 11.615L14.6138 17.0961C14.9915 17.474 15.4873 17.6619 15.9832 17.6619C16.4791 17.6619 16.9769 17.472 17.3546 17.0943C18.1098 16.3366 18.1098 15.1102 17.3525 14.3546Z" fill="white"/>
</svg>
