<svg width="18" height="19" viewBox="0 0 18 19" fill="none" xmlns="http://www.w3.org/2000/svg">
<path d="M9.96458 16.644L10.0412 10.9115L15.7737 10.8348C16.564 10.8237 17.2144 10.1733 17.2276 9.38298C17.2398 8.58965 16.6064 7.95838 15.8152 7.9685L10.0786 8.04526L10.1554 2.3087C10.1655 1.51744 9.53425 0.884097 8.74092 0.896291C7.94964 0.908457 7.29926 1.55883 7.28909 2.35014L7.21244 8.08266L1.47992 8.15932C0.688666 8.16944 0.0382939 8.81981 0.0260761 9.61115C0.0195262 10.0073 0.17656 10.3637 0.432303 10.6194C0.688047 10.8752 1.04444 11.0302 1.43858 11.0256L7.17513 10.9489L7.09837 16.6854C7.09281 17.0806 7.24884 17.436 7.50458 17.6917C7.76032 17.9474 8.11773 18.1034 8.51285 18.0979C9.30408 18.0856 9.95446 17.4352 9.96458 16.644Z" fill="white"/>
</svg>
