<svg width="28" height="36" viewBox="0 0 28 36" fill="none" xmlns="http://www.w3.org/2000/svg">
<path d="M27.1617 31.0928L25.2469 10.0238C25.1929 9.44325 24.7069 9 24.1242 9H20.7492V6.75C20.7492 4.941 20.0494 3.24225 18.7782 1.971C17.5069 0.69975 15.8082 0 13.9992 0C10.2777 0 7.24916 3.0285 7.24916 6.75V9H3.87416C3.2914 9 2.80541 9.44325 2.75366 10.0238L0.838905 31.0928C0.724155 32.3483 1.14716 33.6038 1.99766 34.5353C2.84816 35.4668 4.05865 36 5.3209 36H22.6797C23.9419 36 25.1524 35.4668 26.0029 34.5353C26.8534 33.6038 27.2742 32.3483 27.1617 31.0928ZM9.49916 6.75C9.49916 4.26825 11.5174 2.25 13.9992 2.25C15.2074 2.25 16.3392 2.71575 17.1874 3.56175C18.0357 4.40775 18.4992 5.54175 18.4992 6.75V9H9.49916V6.75ZM24.3402 33.0187C23.9082 33.489 23.3187 33.75 22.6774 33.75H5.3209C4.6819 33.75 4.09015 33.489 3.6604 33.0165C3.2284 32.544 3.02365 31.9342 3.08215 31.2952L4.90241 11.25H7.24916V14.625C7.24916 15.246 7.75316 15.75 8.37416 15.75C8.99516 15.75 9.49916 15.246 9.49916 14.625V11.25H18.4992V14.625C18.4992 15.246 19.0032 15.75 19.6242 15.75C20.2452 15.75 20.7492 15.246 20.7492 14.625V11.25H23.0959L24.9184 31.2975C24.9769 31.9342 24.7722 32.5462 24.3402 33.0187Z" fill="#27292B"/>
</svg>
