<svg width="174" height="156" viewBox="0 0 174 156" fill="none" xmlns="http://www.w3.org/2000/svg">
<path d="M151.946 110.407H26.6378" stroke="#FFE5AA" stroke-width="22" stroke-miterlimit="10" stroke-linecap="round"/>
<path d="M162.749 88.5964H37.4403" stroke="#FFE5AA" stroke-width="22" stroke-miterlimit="10" stroke-linecap="round"/>
<path d="M136.309 67.4036H11" stroke="#FFE5AA" stroke-width="22" stroke-miterlimit="10" stroke-linecap="round"/>
<path d="M129.313 109.173C129.21 109.173 129.107 109.173 129.004 109.173C119.642 101.868 127.152 70.7981 127.152 70.7981H136.72C138.675 81.8063 142.276 109.173 129.313 109.173Z" fill="#FFE06F"/>
<path d="M112.029 101.765V146.313C112.029 150.016 109.045 153 105.341 153H62.4402C62.1316 152.28 62.0287 151.457 62.0287 150.737V103.926C62.0287 80.9835 81.6789 72.0329 81.576 32.0123C81.4731 8.14399 81.576 7.42383 90.5266 7.42383H91.041C91.7612 10.8189 91.7612 16.786 91.7612 27.4856C91.7612 71.93 112.029 72.5473 112.029 101.765Z" fill="#70B962"/>
<path d="M15.4238 152.897H151.946" stroke="#321232" stroke-width="5" stroke-miterlimit="10" stroke-linecap="round"/>
<path d="M129.313 109.173C129.21 109.173 129.107 109.173 129.004 109.173C113.161 108.659 122.728 66.2717 122.728 66.2717H135.897C135.897 66.2717 136.309 68.0207 136.823 70.7985C138.675 81.8067 142.276 109.173 129.313 109.173Z" stroke="#321232" stroke-width="5" stroke-miterlimit="10" stroke-linecap="round" stroke-linejoin="round"/>
<path d="M129.313 152.897V109.173" stroke="#321232" stroke-width="5" stroke-miterlimit="10" stroke-linecap="round" stroke-linejoin="round"/>
<path d="M37.4403 108.658C37.3374 108.658 37.2346 108.658 37.1317 108.658C27.7695 101.354 35.2798 70.2837 35.2798 70.2837H44.8477C46.8025 81.3948 50.4033 108.658 37.4403 108.658Z" fill="#FFE06F"/>
<path d="M37.4403 108.659C37.3375 108.659 37.2346 108.659 37.1317 108.659C21.2881 108.144 30.856 65.7573 30.856 65.7573H43.9218C43.9218 65.7573 44.3333 67.5063 44.8477 70.2841C46.8025 81.3952 50.4033 108.659 37.4403 108.659Z" stroke="#321232" stroke-width="5" stroke-miterlimit="10" stroke-linecap="round" stroke-linejoin="round"/>
<path d="M37.4403 152.486V108.658" stroke="#321232" stroke-width="5" stroke-miterlimit="10" stroke-linecap="round" stroke-linejoin="round"/>
<path d="M109.868 115.14H78.7985V137.979H109.868V115.14Z" fill="#E8E2F2"/>
<path d="M112.029 101.765V146.313C112.029 150.016 109.045 153 105.342 153H61.7202C58.0165 153 55.1359 150.016 55.1359 146.313V99.5021C55.1359 76.5597 74.7861 67.6091 74.6832 27.5885C74.5803 3.72016 74.6832 3 83.6338 3C88.1606 3 90.2182 3.20576 91.1441 7.32099C91.8643 10.716 91.8643 16.6831 91.8643 27.3827C91.7614 71.93 112.029 72.5473 112.029 101.765Z" stroke="#321232" stroke-width="5" stroke-miterlimit="10"/>
<path d="M43.0988 58.2461V57.6296" stroke="#321232" stroke-width="4" stroke-miterlimit="10" stroke-linecap="round"/>
<path d="M135.28 54.645V53.9258" stroke="#321232" stroke-width="4" stroke-miterlimit="10" stroke-linecap="round"/>
<path d="M124.889 59.4807V58.8643" stroke="#321232" stroke-width="4" stroke-miterlimit="10" stroke-linecap="round"/>
<path d="M35.0741 53.8223V53.2058" stroke="#321232" stroke-width="4" stroke-miterlimit="10" stroke-linecap="round"/>
</svg>
