<svg width="35" height="36" viewBox="0 0 35 36" fill="none" xmlns="http://www.w3.org/2000/svg">
<path d="M29.882 5.12533C23.0578 -1.70063 11.9506 -1.70063 5.12652 5.12533C1.82091 8.43314 0 12.8301 0 17.5064C0 22.1826 1.82091 26.5796 5.12652 29.8861C8.53926 33.2997 13.0218 35.0059 17.5042 35.0059C21.9866 35.0059 26.4692 33.2997 29.8819 29.8861C36.706 23.0601 36.706 11.9526 29.882 5.12533ZM27.9647 27.9683C22.1968 33.7378 12.8116 33.7378 7.04368 27.9683C4.25063 25.1745 2.71171 21.4584 2.71171 17.5064C2.71171 13.5543 4.25063 9.83818 7.04368 7.043C12.8116 1.27356 22.1968 1.27493 27.9647 7.043C33.7312 12.8124 33.7312 22.2003 27.9647 27.9683Z" fill="#27292B"/>
<path d="M23.3467 21.2541L19.5082 17.42L23.3467 13.586C23.8754 13.0571 23.8754 12.1986 23.348 11.6682C22.8179 11.1366 21.9597 11.138 21.4295 11.6669L17.5884 15.5037L13.7472 11.6669C13.2171 11.138 12.3588 11.1366 11.8287 11.6682C11.2999 12.1985 11.2999 13.057 11.8301 13.586L15.6686 17.42L11.8301 21.2541C11.2999 21.783 11.2999 22.6415 11.8287 23.1718C12.0931 23.4376 12.4415 23.5692 12.7887 23.5692C13.1358 23.5692 13.4829 23.4362 13.7473 23.1731L17.5884 19.3363L21.4296 23.1731C21.694 23.4376 22.0411 23.5692 22.3882 23.5692C22.7353 23.5692 23.0838 23.4362 23.3482 23.1718C23.8768 22.6415 23.8768 21.783 23.3467 21.2541Z" fill="#27292B"/>
</svg>
