<svg width="24" height="24" viewBox="0 0 24 24" fill="none" xmlns="http://www.w3.org/2000/svg">
<path d="M21.8711 2.60339C21.8203 2.60139 21.7693 2.60106 21.7184 2.60245H19.7987V1.01207C19.7988 0.375913 19.1688 0 18.5089 0H16.7392C16.0793 0 15.5994 0.375913 15.5994 1.01207V2.60239H8.40054V1.01207C8.40054 0.375913 7.92062 0 7.26072 0H5.49097C4.83113 0 4.20119 0.375913 4.20119 1.01207V2.60239H2.28154C1.05612 2.56946 0.0350326 3.50044 0.000871934 4.6817C-0.000563386 4.73074 -0.000218898 4.77989 0.00184796 4.82892V21.5422C0.00184796 22.8145 0.961675 24 2.28148 24H21.7185C23.0383 24 23.9981 22.8145 23.9981 21.5422V4.82892C24.0483 3.64816 23.096 2.65176 21.8711 2.60339ZM16.7392 1.15663H18.5989V4.33734H16.7392V1.15663ZM5.49103 1.15663H7.20078V4.33734H5.49103V1.15663ZM22.7983 21.5422C22.7983 22.1783 22.3784 22.8434 21.7185 22.8434H2.28154C1.62164 22.8434 1.20172 22.1783 1.20172 21.5422V9.25304H22.7983V21.5422ZM22.7983 4.82892V8.09641H1.20166V4.82892C1.15085 4.28819 1.56439 3.81011 2.12532 3.76112C2.17722 3.75659 2.22946 3.75592 2.28148 3.75908H4.20119V4.39523C4.20119 5.03138 4.83107 5.49402 5.49097 5.49402H7.26072C7.87343 5.51024 8.38372 5.0445 8.40054 4.45384C8.40111 4.4343 8.40111 4.41477 8.40054 4.39523V3.75902H15.5994V4.39517C15.5826 4.98583 16.0657 5.47775 16.6784 5.49397C16.6987 5.49452 16.719 5.49452 16.7392 5.49397H18.509C19.1689 5.49397 19.7988 5.03133 19.7988 4.39517V3.75902H21.7185C22.2806 3.72487 22.765 4.13648 22.8004 4.67838C22.8037 4.72853 22.803 4.77889 22.7983 4.82892Z" fill="#535456"/>
<path d="M8.6705 17.147L8.13059 20.0386C8.10923 20.1626 8.13036 20.29 8.19082 20.4014C8.3444 20.6844 8.7069 20.7938 9.00045 20.6458L11.7 19.2867L14.3996 20.6458L14.6695 20.7036C14.7997 20.7058 14.9267 20.665 15.0294 20.5879C15.2087 20.4617 15.301 20.2504 15.2694 20.0385L14.7295 17.1469L16.9192 15.1229C17.0759 14.9597 17.1327 14.7294 17.0691 14.5157C16.9884 14.3181 16.8064 14.1756 16.5892 14.1398L13.5897 13.706L12.2399 11.0747C12.1811 10.9576 12.083 10.863 11.9615 10.8063C11.6633 10.6671 11.3045 10.7873 11.1601 11.0747L9.81032 13.706L6.81079 14.1398C6.59365 14.1755 6.41165 14.3181 6.33087 14.5157C6.26732 14.7294 6.32421 14.9597 6.48083 15.1229L8.6705 17.147ZM10.3203 14.8048C10.5086 14.7777 10.6682 14.6568 10.7402 14.4868L11.7 12.6362L12.6598 14.4868C12.7318 14.6568 12.8914 14.7777 13.0797 14.8048L15.2094 15.094L13.6797 16.5108C13.5372 16.6468 13.4703 16.8401 13.4997 17.0313L13.8596 19.0843L11.9699 18.1012L11.6999 18.0434L11.43 18.1012L9.54031 19.0843L9.90023 17.0313C9.92962 16.8401 9.86274 16.6468 9.72024 16.5108L8.19047 15.094L10.3203 14.8048Z" fill="#535456"/>
</svg>
