<svg width="24" height="25" viewBox="0 0 24 25" fill="none" xmlns="http://www.w3.org/2000/svg">
  <path d="M22.8823 11.2076L22.8806 11.2058L13.4974 1.41608C13.0975 0.998596 12.5657 0.768799 12.0001 0.768799C11.4345 0.768799 10.9028 0.998596 10.5026 1.41608L1.12443 11.2009C1.12127 11.2042 1.11794 11.2076 1.11495 11.2109C0.293643 12.0728 0.295047 13.4712 1.11899 14.3309C1.49542 14.7238 1.99242 14.9512 2.52399 14.9752C2.54575 14.9774 2.56752 14.9785 2.58945 14.9785H2.96325V22.183C2.96325 23.6088 4.07518 24.7688 5.44175 24.7688H9.11273C9.48495 24.7688 9.78663 24.4539 9.78663 24.0657V18.4172C9.78663 17.7667 10.294 17.2375 10.9175 17.2375H13.0828C13.7063 17.2375 14.2135 17.7667 14.2135 18.4172V24.0657C14.2135 24.4539 14.5151 24.7688 14.8874 24.7688H18.5583C19.9251 24.7688 21.0368 23.6088 21.0368 22.183V14.9785H21.3836C21.9491 14.9785 22.4808 14.7487 22.8811 14.3311C23.7059 13.4701 23.7063 12.0692 22.8823 11.2076ZM21.928 13.3368C21.7825 13.4886 21.5891 13.5723 21.3836 13.5723H20.3629C19.9907 13.5723 19.689 13.887 19.689 14.2754V22.183C19.689 22.8334 19.1819 23.3625 18.5583 23.3625H15.5613V18.4172C15.5613 16.9914 14.4495 15.8312 13.0828 15.8312H10.9175C9.55077 15.8312 8.43884 16.9914 8.43884 18.4172V23.3625H5.44175C4.8184 23.3625 4.31105 22.8334 4.31105 22.183V14.2754C4.31105 13.887 4.00937 13.5723 3.63715 13.5723H2.63403C2.6235 13.5715 2.61314 13.571 2.60244 13.5708C2.40167 13.5671 2.21337 13.484 2.07227 13.3366C1.77218 13.0235 1.77218 12.5139 2.07227 12.2006L11.4559 2.41034C11.6012 2.25854 11.7945 2.17505 12.0001 2.17505C12.2056 2.17505 12.3989 2.25854 12.5443 2.41034L21.925 12.1977C21.9264 12.1992 21.928 12.2006 21.9294 12.2021C22.2279 12.5157 22.2274 13.0242 21.928 13.3368Z" fill="#535456"/>
</svg>
