<svg width="24" height="24" viewBox="0 0 24 24" fill="none" xmlns="http://www.w3.org/2000/svg">
<path d="M12 0C5.36705 0 0 5.36752 0 12C0 18.633 5.36752 24 12 24C18.633 24 24 18.6325 24 12C24 5.36705 18.6324 0 12 0ZM12 22.125C6.40345 22.125 1.875 17.5962 1.875 12C1.875 6.40345 6.40383 1.875 12 1.875C17.5965 1.875 22.125 6.40383 22.125 12C22.125 17.5965 17.5961 22.125 12 22.125Z" fill="#535456"/>
<path d="M12 10.0467C11.4822 10.0467 11.0625 10.4664 11.0625 10.9842V17.0214C11.0625 17.5392 11.4822 17.9589 12 17.9589C12.5178 17.9589 12.9375 17.5391 12.9375 17.0213V10.9842C12.9375 10.4664 12.5178 10.0467 12 10.0467Z" fill="#535456"/>
<path d="M12 8.89873C12.699 8.89873 13.2656 8.33209 13.2656 7.6331C13.2656 6.93412 12.699 6.36748 12 6.36748C11.301 6.36748 10.7344 6.93412 10.7344 7.6331C10.7344 8.33209 11.301 8.89873 12 8.89873Z" fill="#535456"/>
</svg>
