<svg width="36" height="36" viewBox="0 0 36 36" fill="none" xmlns="http://www.w3.org/2000/svg">
<path d="M17.9402 33.0001H4.48502C3.65977 33.0001 2.99004 32.328 2.99004 31.5001V4.50004C2.99004 3.67204 3.65984 3.00008 4.48502 3.00008H17.9402C18.767 3.00008 19.4352 2.3296 19.4352 1.50011C19.4352 0.670619 18.767 0 17.9402 0H4.48502C2.01227 0 0 2.01905 0 4.50004V31.5C0 33.981 2.01227 36 4.48502 36H17.9402C18.767 36 19.4352 35.3295 19.4352 34.5C19.4352 33.6705 18.767 33.0001 17.9402 33.0001Z" fill="#27292B"/>
<path d="M35.5545 16.932L26.4648 7.93201C25.8787 7.35 24.9309 7.35755 24.3508 7.94704C23.7708 8.53653 23.7767 9.48602 24.3658 10.068L30.8616 16.5H13.4551C12.6284 16.5 11.9602 17.1705 11.9602 18C11.9602 18.8295 12.6284 19.5 13.4551 19.5H30.8616L24.3658 25.932C23.7768 26.514 23.7723 27.4635 24.3508 28.053C24.6438 28.35 25.0296 28.5 25.4153 28.5C25.7951 28.5 26.1747 28.356 26.4648 28.0679L35.5545 19.0679C35.8386 18.7859 36 18.4019 36 17.9999C36 17.5981 35.84 17.2156 35.5545 16.932Z" fill="#27292B"/>
</svg>
