<svg width="16" height="24" viewBox="0 0 16 24" fill="none" xmlns="http://www.w3.org/2000/svg">
<path d="M13.3333 2.86139H10.1818V0.705505C10.1818 0.317322 9.85663 0.00256348 9.45511 0.00238037L6.59394 0C6.19205 0 5.86667 0.315491 5.86667 0.703125V2.86139H2.66667C1.19621 2.86139 0 4.01788 0 5.43933V21.4221C0 22.8435 1.19621 24 2.66667 24H13.3333C14.8038 24 16 22.8435 16 21.4221V5.43933C16 4.01788 14.8038 2.86139 13.3333 2.86139ZM7.32121 1.4068L8.72727 1.4079V4.26746H7.32121V1.4068ZM14.5455 21.4221C14.5455 22.0681 14.0017 22.5938 13.3333 22.5938H2.66667C1.9983 22.5938 1.45455 22.0681 1.45455 21.4221V5.43933C1.45455 4.79333 1.9983 4.26764 2.66667 4.26764H5.86667V4.97058C5.86667 5.35895 6.19223 5.67371 6.59394 5.67371H9.45455C9.85625 5.67371 10.1818 5.35895 10.1818 4.97058V4.26764H13.3333C14.0017 4.26764 14.5455 4.79315 14.5455 5.43933V21.4221Z" fill="#535456"/>
<path d="M12.3636 16.9224H3.63636C3.23466 16.9224 2.90909 17.2372 2.90909 17.6256C2.90909 18.0139 3.23466 18.3287 3.63636 18.3287H12.3636C12.7653 18.3287 13.0909 18.0139 13.0909 17.6256C13.0909 17.2372 12.7653 16.9224 12.3636 16.9224Z" fill="#535456"/>
<path d="M6.54545 19.7347H3.63636C3.23466 19.7347 2.90909 20.0495 2.90909 20.4379C2.90909 20.8261 3.23466 21.141 3.63636 21.141H6.54545C6.94716 21.141 7.27273 20.8261 7.27273 20.4379C7.27273 20.0495 6.94716 19.7347 6.54545 19.7347Z" fill="#535456"/>
<path d="M12.3636 19.7347H9.45455C9.05284 19.7347 8.72727 20.0495 8.72727 20.4379C8.72727 20.8261 9.05284 21.141 9.45455 21.141H12.3636C12.7653 21.141 13.0909 20.8261 13.0909 20.4379C13.0909 20.0495 12.7653 19.7347 12.3636 19.7347Z" fill="#535456"/>
<path d="M5.09091 15.5165H10.9091C11.3108 15.5165 11.6364 15.2016 11.6364 14.8134V13.4072C11.6364 12.1128 10.915 10.9744 9.81364 10.3599C10.7788 8.96759 9.74299 7.07959 8 7.07959C6.25606 7.07959 5.21723 8.97125 6.19015 10.3654C5.04867 11.0121 4.36364 12.206 4.36364 13.4539V14.8134C4.36364 15.2016 4.6892 15.5165 5.09091 15.5165ZM8 8.48584C8.40095 8.48584 8.72727 8.80133 8.72727 9.18896C8.72727 9.5766 8.40095 9.89191 8 9.89191C7.59905 9.89191 7.27273 9.5766 7.27273 9.18896C7.27273 8.80133 7.59905 8.48584 8 8.48584ZM5.81818 13.4539C5.81818 12.2596 6.81686 11.2753 8.0447 11.2985C9.22311 11.3214 10.1818 12.2673 10.1818 13.4072V14.1103H5.81818V13.4539Z" fill="#535456"/>
</svg>
