<svg width="22" height="25" viewBox="0 0 22 25" fill="none" xmlns="http://www.w3.org/2000/svg">
<path d="M17.0917 8.7541H15.7709V7.0212C16.3702 6.37665 16.688 5.5185 16.6474 4.63135C16.6103 3.82383 16.2748 3.05951 15.7024 2.47917C15.1299 1.89859 14.3702 1.55262 13.5633 1.50486C12.9144 1.46604 12.2759 1.61745 11.7176 1.94151C11.6342 1.98992 11.5222 1.96792 11.457 1.89041C10.7399 1.03659 9.68956 0.546875 8.57542 0.546875C7.46127 0.546875 6.41091 1.03659 5.69364 1.89046C5.62854 1.96788 5.51652 1.98988 5.43332 1.9416C4.87526 1.61749 4.23734 1.46665 3.5878 1.50486C2.78085 1.55253 2.02103 1.8985 1.4485 2.47898C0.876147 3.05927 0.540521 3.8236 0.50348 4.63117C0.462773 5.51841 0.78063 6.37661 1.37991 7.0212V22.4316C1.37991 23.598 2.32883 24.5469 3.4952 24.5469H13.6556C14.822 24.5469 15.7709 23.598 15.7709 22.4316V21.7584H17.0917C19.5541 21.7584 21.5574 19.7551 21.5574 17.2928V13.2197C21.5574 10.7574 19.5541 8.7541 17.0917 8.7541ZM15.7709 12.9847H16.6217C17.0105 12.9847 17.3268 13.301 17.3268 13.6898V16.8226C17.3268 17.2114 17.0105 17.5277 16.6217 17.5277H15.7709V12.9847ZM1.91221 4.6958C1.95551 3.75158 2.7281 2.96831 3.67105 2.91256C4.04283 2.89052 4.40741 2.97645 4.72517 3.16104C5.40399 3.55524 6.26543 3.40232 6.77347 2.79745C7.2221 2.26341 7.87887 1.95707 8.57542 1.95707C9.27196 1.95707 9.92873 2.26336 10.3773 2.7974C10.8854 3.40232 11.7468 3.55533 12.4257 3.16099C12.7436 2.97645 13.1082 2.89047 13.48 2.91256C14.4229 2.96836 15.1954 3.75168 15.2387 4.69589C15.26 5.15999 15.1101 5.61031 14.8223 5.96558H7.02068V10.3966C7.02068 10.7854 6.70437 11.1017 6.31558 11.1017C5.92679 11.1017 5.61049 10.7854 5.61049 10.3966V5.96558H2.3286C2.04073 5.61031 1.89087 5.15994 1.91221 4.6958ZM14.3607 22.4315C14.3607 22.8203 14.0444 23.1366 13.6556 23.1366H3.4952C3.10641 23.1366 2.79011 22.8203 2.79011 22.4315V7.37573H4.2003V10.3965C4.2003 11.5629 5.14921 12.5118 6.31558 12.5118C7.48195 12.5118 8.43087 11.5629 8.43087 10.3965V7.37573H14.3607V22.4315ZM20.1472 17.2927C20.1472 18.9775 18.7765 20.3481 17.0917 20.3481H15.7709V18.9379H16.6217C17.7881 18.9379 18.737 17.989 18.737 16.8226V13.6898C18.737 12.5234 17.7881 11.5745 16.6217 11.5745H15.7709V10.1643H17.0917C18.7765 10.1643 20.1472 11.5349 20.1472 13.2197V17.2927Z" fill="#535456"/>
</svg>
