<svg width="24" height="24" viewBox="0 0 24 24" fill="none" xmlns="http://www.w3.org/2000/svg">
<path d="M21.4286 0H2.57143C1.15127 0 0 1.15127 0 2.57143V21.4286C0 22.8487 1.15127 24 2.57143 24H21.4286C22.8487 24 24 22.8487 24 21.4286V2.57143C24 1.15127 22.8487 0 21.4286 0ZM22.2857 21.4286C22.2857 21.902 21.9019 22.2857 21.4285 22.2857H2.57143C2.09802 22.2857 1.71427 21.902 1.71427 21.4286V2.57143C1.71427 2.09802 2.09802 1.71427 2.57143 1.71427H21.4286C21.902 1.71427 22.2857 2.09802 22.2857 2.57143L22.2857 21.4286Z" fill="#535456"/>
<path d="M7.71428 5.14285H5.14285C4.66945 5.14285 4.28569 5.52661 4.28569 6.00001C4.28569 6.47341 4.66945 6.85717 5.14285 6.85717H7.71428C8.18768 6.85717 8.57144 6.47341 8.57144 6.00001C8.57144 5.52661 8.18768 5.14285 7.71428 5.14285Z" fill="#535456"/>
<path d="M18.8571 5.14285H11.1429C10.6694 5.14285 10.2857 5.52661 10.2857 6.00001C10.2857 6.47341 10.6694 6.85717 11.1429 6.85717H18.8571C19.3305 6.85717 19.7143 6.47341 19.7143 6.00001C19.7143 5.52661 19.3305 5.14285 18.8571 5.14285Z" fill="#535456"/>
<path d="M7.71428 11.1429H5.14285C4.66945 11.1429 4.28569 11.5266 4.28569 12C4.28569 12.4734 4.66945 12.8571 5.14285 12.8571H7.71428C8.18768 12.8571 8.57144 12.4734 8.57144 12C8.57144 11.5266 8.18768 11.1429 7.71428 11.1429Z" fill="#535456"/>
<path d="M18.8571 11.1429H11.1429C10.6694 11.1429 10.2857 11.5266 10.2857 12C10.2857 12.4734 10.6694 12.8571 11.1429 12.8571H18.8571C19.3305 12.8571 19.7143 12.4734 19.7143 12C19.7143 11.5266 19.3305 11.1429 18.8571 11.1429Z" fill="#535456"/>
<path d="M7.71428 17.1428H5.14285C4.66945 17.1428 4.28569 17.5266 4.28569 18C4.28569 18.4734 4.66945 18.8571 5.14285 18.8571H7.71428C8.18768 18.8571 8.57144 18.4734 8.57144 18C8.57144 17.5266 8.18768 17.1428 7.71428 17.1428Z" fill="#535456"/>
<path d="M18.8571 17.1428H11.1429C10.6694 17.1428 10.2857 17.5266 10.2857 18C10.2857 18.4734 10.6694 18.8571 11.1429 18.8571H18.8571C19.3305 18.8571 19.7143 18.4734 19.7143 18C19.7143 17.5266 19.3305 17.1428 18.8571 17.1428Z" fill="#535456"/>
</svg>
