<svg width="30" height="30" viewBox="0 0 30 30" fill="none" xmlns="http://www.w3.org/2000/svg">
<path d="M14.6875 15C15.205 15 15.625 14.5418 15.625 13.9773V12.9546H24.375V13.9773C24.375 14.5418 24.795 15 25.3125 15C25.83 15 26.25 14.5418 26.25 13.9773V11.9318C26.25 11.3673 25.83 10.9091 25.3125 10.9091H14.6875C14.17 10.9091 13.75 11.3673 13.75 11.9318V13.9773C13.75 14.5418 14.17 15 14.6875 15Z" fill="#E9E0D2"/>
<path d="M20 24.2045C20.5175 24.2045 20.9375 23.7464 20.9375 23.1818V12.2727C20.9375 11.7082 20.5175 11.25 20 11.25C19.4825 11.25 19.0625 11.7082 19.0625 12.2727V23.1818C19.0625 23.7464 19.4825 24.2045 20 24.2045Z" fill="#E9E0D2"/>
<path d="M18.4375 24.5455H21.5625C22.08 24.5455 22.5 24.0873 22.5 23.5227C22.5 22.9582 22.08 22.5 21.5625 22.5H18.4375C17.92 22.5 17.5 22.9582 17.5 23.5227C17.5 24.0873 17.92 24.5455 18.4375 24.5455Z" fill="#E9E0D2"/>
<path d="M4.6875 12.9546H10.3125C10.83 12.9546 11.25 12.4964 11.25 11.9318C11.25 11.3673 10.83 10.9091 10.3125 10.9091H4.6875C4.17 10.9091 3.75 11.3673 3.75 11.9318C3.75 12.4964 4.17 12.9546 4.6875 12.9546Z" fill="#E9E0D2"/>
<path d="M4.6875 18.4091H10.3125C10.83 18.4091 11.25 17.9509 11.25 17.3864C11.25 16.8218 10.83 16.3637 10.3125 16.3637H4.6875C4.17 16.3637 3.75 16.8218 3.75 17.3864C3.75 17.9509 4.17 18.4091 4.6875 18.4091Z" fill="#E9E0D2"/>
<path d="M4.6875 23.8637H10.3125C10.83 23.8637 11.25 23.4055 11.25 22.8409C11.25 22.2764 10.83 21.8182 10.3125 21.8182H4.6875C4.17 21.8182 3.75 22.2764 3.75 22.8409C3.75 23.4055 4.17 23.8637 4.6875 23.8637Z" fill="#E9E0D2"/>
<path d="M3.4375 30H26.5625C28.4587 30 30 28.3186 30 26.25V3.75C30 1.68136 28.4587 0 26.5625 0H3.4375C1.54125 0 0 1.68136 0 3.75V26.25C0 28.3186 1.54125 30 3.4375 30ZM26.5625 2.04545C27.4237 2.04545 28.125 2.81045 28.125 3.75V26.25C28.125 27.1895 27.4237 27.9545 26.5625 27.9545H3.4375C2.57625 27.9545 1.875 27.1895 1.875 26.25V3.75C1.875 2.81045 2.57625 2.04545 3.4375 2.04545H26.5625Z" fill="#E9E0D2"/>
<path d="M0.9375 6.81818H29.0625C29.58 6.81818 30 6.36 30 5.79545C30 5.23091 29.58 4.77273 29.0625 4.77273H0.9375C0.42 4.77273 0 5.23091 0 5.79545C0 6.36 0.42 6.81818 0.9375 6.81818Z" fill="#E9E0D2"/>
</svg>
