<svg width="24" height="24" viewBox="0 0 24 24" fill="none" xmlns="http://www.w3.org/2000/svg">
<path d="M19.714 12C19.2406 12 18.8569 12.3838 18.8569 12.8572V21.4286C18.8569 21.902 18.4731 22.2857 17.9997 22.2857H2.57139C2.098 22.2857 1.71425 21.902 1.71425 21.4286V4.28569C1.71425 3.81229 2.098 3.42853 2.57139 3.42853H12.857C13.3304 3.42853 13.7141 3.04478 13.7141 2.57137C13.7141 2.09797 13.3304 1.71426 12.857 1.71426H2.57139C1.15125 1.71426 0 2.86553 0 4.28569V21.4286C0 22.8487 1.15125 24 2.57139 24H17.9998C19.4199 24 20.5712 22.8487 20.5712 21.4286V12.8571C20.5712 12.3838 20.1874 12 19.714 12Z" fill="#535456"/>
<path d="M23.0392 0.961187C22.4238 0.34565 21.589 -8.68858e-05 20.7186 1.35609e-05C19.8477 -0.0024976 19.0121 0.343842 18.3984 0.96174L7.10818 12.2511C7.01452 12.3455 6.94385 12.4602 6.90162 12.5863L5.18737 17.7291C5.03776 18.1783 5.28058 18.6636 5.72972 18.8132C5.81686 18.8422 5.90811 18.8571 5.99992 18.8572C6.09193 18.857 6.18338 18.8422 6.27077 18.8135L11.4136 17.0992C11.5399 17.057 11.6546 16.986 11.7487 16.8918L23.0388 5.60147C24.3203 4.32017 24.3204 2.24263 23.0392 0.961187ZM21.8269 4.39028L10.6841 15.5332L7.35503 16.6449L8.46329 13.32L19.6103 2.17714C20.2231 1.56552 21.2157 1.56653 21.8274 2.17935C22.1195 2.47211 22.2841 2.86842 22.2854 3.28201C22.2864 3.6978 22.1214 4.09678 21.8269 4.39028Z" fill="#535456"/>
</svg>
