<svg width="25" height="25" viewBox="0 0 25 25" fill="none" xmlns="http://www.w3.org/2000/svg">
<path d="M20.9853 3.76471C18.7188 1.49823 15.7053 0.25 12.5 0.25C9.29456 0.25 6.28119 1.49823 4.01471 3.76471C1.74823 6.03119 0.5 9.04456 0.5 12.25C0.5 15.4553 1.74823 18.4688 4.01471 20.7353C6.28119 23.0018 9.29456 24.25 12.5 24.25C15.7053 24.25 18.7188 23.0018 20.9853 20.7353C23.2518 18.4688 24.5 15.4553 24.5 12.25C24.5 9.04456 23.2518 6.03119 20.9853 3.76471ZM6.51593 20.9869C7.01782 18.0971 9.52197 15.9656 12.5 15.9656C15.4782 15.9656 17.9822 18.0971 18.4841 20.9869C16.7803 22.1575 14.7189 22.8438 12.5 22.8438C10.2811 22.8438 8.21973 22.1575 6.51593 20.9869ZM8.68445 10.7438C8.68445 8.63971 10.3961 6.92822 12.5 6.92822C14.6039 6.92822 16.3156 8.63989 16.3156 10.7438C16.3156 12.8477 14.6039 14.5593 12.5 14.5593C10.3961 14.5593 8.68445 12.8477 8.68445 10.7438ZM19.7021 20.0115C19.3236 18.6662 18.572 17.4456 17.5184 16.4922C16.872 15.9072 16.1363 15.4456 15.3453 15.1202C16.775 14.1876 17.722 12.5743 17.722 10.7438C17.722 7.86444 15.3793 5.52197 12.5 5.52197C9.62067 5.52197 7.2782 7.86444 7.2782 10.7438C7.2782 12.5743 8.22522 14.1876 9.65472 15.1202C8.86389 15.4456 8.12799 15.907 7.48163 16.492C6.42822 17.4454 5.67639 18.666 5.29791 20.0113C3.21326 18.0753 1.90625 15.3126 1.90625 12.25C1.90625 6.40857 6.65857 1.65625 12.5 1.65625C18.3414 1.65625 23.0938 6.40857 23.0938 12.25C23.0938 15.3128 21.7867 18.0755 19.7021 20.0115Z" fill="#535456"/>
</svg>
