<svg width="19" height="25" viewBox="0 0 19 25" fill="none" xmlns="http://www.w3.org/2000/svg">
<path d="M16.6719 11.8477C17.0428 11.8477 17.4074 11.9451 17.726 12.1294C18.1945 12.4004 18.7812 12.0611 18.7812 11.5208V5.51953C18.7812 5.13122 18.4664 4.81641 18.0781 4.81641H13.0801C13.1302 4.57097 13.1562 4.31855 13.1562 4.06641C13.1562 2.12789 11.5791 0.550781 9.64062 0.550781C7.70211 0.550781 6.125 2.12789 6.125 4.06641C6.125 4.31855 6.15102 4.57097 6.20113 4.81641H1.20312C0.814813 4.81641 0.5 5.13122 0.5 5.51953V11.5208C0.5 12.062 1.08744 12.3998 1.5552 12.1294C1.87386 11.9451 2.23841 11.8477 2.60938 11.8477C3.77248 11.8477 4.71875 12.7939 4.71875 13.957C4.71875 15.1201 3.77248 16.0664 2.60938 16.0664C2.23841 16.0664 1.87386 15.969 1.5552 15.7846C1.08678 15.5138 0.5 15.8528 0.5 16.3933V23.8477C0.5 24.236 0.814813 24.5508 1.20312 24.5508H7.20439C7.74547 24.5508 8.08367 23.9633 7.81297 23.4956C7.62866 23.1769 7.53125 22.8124 7.53125 22.4414C7.53125 21.2783 8.47752 20.332 9.64062 20.332C10.8037 20.332 11.75 21.2783 11.75 22.4414C11.75 22.8124 11.6526 23.1769 11.4682 23.4956C11.1972 23.964 11.5365 24.5508 12.0768 24.5508H18.0781C18.4664 24.5508 18.7812 24.236 18.7812 23.8477V16.3933C18.7812 15.8522 18.1939 15.5141 17.726 15.7846C17.4074 15.969 17.0428 16.0664 16.6719 16.0664C15.5088 16.0664 14.5625 15.1201 14.5625 13.957C14.5625 12.7939 15.5088 11.8477 16.6719 11.8477ZM16.6719 17.4727C16.909 17.4727 17.1446 17.4487 17.375 17.4018V23.1445H13.0853C13.1323 22.914 13.1562 22.6785 13.1562 22.4414C13.1562 20.5029 11.5791 18.9258 9.64062 18.9258C7.70211 18.9258 6.125 20.5029 6.125 22.4414C6.125 22.6785 6.14895 22.914 6.19592 23.1445H1.90625V17.4018C2.13669 17.4487 2.37228 17.4727 2.60938 17.4727C4.54789 17.4727 6.125 15.8955 6.125 13.957C6.125 12.0185 4.54789 10.4414 2.60938 10.4414C2.37228 10.4414 2.13669 10.4654 1.90625 10.5123V6.22266H7.20439C7.74547 6.22266 8.08367 5.63522 7.81297 5.16745C7.63395 4.85789 7.53125 4.45659 7.53125 4.06641C7.53125 2.9033 8.47752 1.95703 9.64062 1.95703C10.8037 1.95703 11.75 2.9033 11.75 4.06641C11.75 4.45659 11.6473 4.85789 11.4682 5.16745C11.1972 5.63583 11.5365 6.22266 12.0768 6.22266H17.375V10.5123C17.1446 10.4654 16.909 10.4414 16.6719 10.4414C14.7334 10.4414 13.1562 12.0185 13.1562 13.957C13.1562 15.8955 14.7334 17.4727 16.6719 17.4727Z" fill="#535456"/>
</svg>
