<svg width="24" height="24" viewBox="0 0 24 24" fill="none" xmlns="http://www.w3.org/2000/svg">
<path d="M23.25 6.75C22.8358 6.75 22.5 6.41419 22.5 6V2.15625C22.5 1.79438 22.2056 1.5 21.8438 1.5H18C17.5858 1.5 17.25 1.16419 17.25 0.75C17.25 0.335813 17.5858 0 18 0H21.8438C23.0327 0 24 0.967313 24 2.15625V6C24 6.41419 23.6642 6.75 23.25 6.75Z" fill="#535456"/>
<path d="M0.75 6.75C0.335766 6.75 0 6.41419 0 6V2.15625C0 0.967313 0.967313 0 2.15625 0H6C6.41423 0 6.75 0.335813 6.75 0.75C6.75 1.16419 6.41423 1.5 6 1.5H2.15625C1.79438 1.5 1.5 1.79438 1.5 2.15625V6C1.5 6.41419 1.16423 6.75 0.75 6.75Z" fill="#535456"/>
<path d="M6 24H2.15625C0.967313 24 0 23.0327 0 21.8438V18C0 17.5858 0.335766 17.25 0.75 17.25C1.16423 17.25 1.5 17.5858 1.5 18V21.8438C1.5 22.2056 1.79438 22.5 2.15625 22.5H6C6.41423 22.5 6.75 22.8358 6.75 23.25C6.75 23.6642 6.41423 24 6 24Z" fill="#535456"/>
<path d="M21.8438 24H18C17.5858 24 17.25 23.6642 17.25 23.25C17.25 22.8358 17.5858 22.5 18 22.5H21.8438C22.2056 22.5 22.5 22.2056 22.5 21.8438V18C22.5 17.5858 22.8358 17.25 23.25 17.25C23.6642 17.25 24 17.5858 24 18V21.8438C24 23.0327 23.0327 24 21.8438 24Z" fill="#535456"/>
<path d="M9.09375 11.25H5.15625C3.96731 11.25 3 10.2827 3 9.09375V5.15625C3 3.96731 3.96731 3 5.15625 3H9.09375C10.2827 3 11.25 3.96731 11.25 5.15625V9.09375C11.25 10.2827 10.2827 11.25 9.09375 11.25ZM5.15625 4.5C4.79437 4.5 4.5 4.79437 4.5 5.15625V9.09375C4.5 9.45563 4.79437 9.75 5.15625 9.75H9.09375C9.45563 9.75 9.75 9.45563 9.75 9.09375V5.15625C9.75 4.79437 9.45563 4.5 9.09375 4.5H5.15625Z" fill="#535456"/>
<path d="M9.09375 21H5.15625C3.96731 21 3 20.0327 3 18.8438V14.9062C3 13.7173 3.96731 12.75 5.15625 12.75H9.09375C10.2827 12.75 11.25 13.7173 11.25 14.9062V18.8438C11.25 20.0327 10.2827 21 9.09375 21ZM5.15625 14.25C4.79437 14.25 4.5 14.5444 4.5 14.9062V18.8438C4.5 19.2056 4.79437 19.5 5.15625 19.5H9.09375C9.45563 19.5 9.75 19.2056 9.75 18.8438V14.9062C9.75 14.5444 9.45563 14.25 9.09375 14.25H5.15625Z" fill="#535456"/>
<path d="M18.8438 11.25H14.9062C13.7173 11.25 12.75 10.2827 12.75 9.09375V5.15625C12.75 3.96731 13.7173 3 14.9062 3H18.8438C20.0327 3 21 3.96731 21 5.15625V9.09375C21 10.2827 20.0327 11.25 18.8438 11.25ZM14.9062 4.5C14.5444 4.5 14.25 4.79437 14.25 5.15625V9.09375C14.25 9.45563 14.5444 9.75 14.9062 9.75H18.8438C19.2056 9.75 19.5 9.45563 19.5 9.09375V5.15625C19.5 4.79437 19.2056 4.5 18.8438 4.5H14.9062Z" fill="#535456"/>
<path d="M19.7812 16.5H18V13.9688C18 13.2968 17.4533 12.75 16.7812 12.75H13.9688C13.2967 12.75 12.75 13.2968 12.75 13.9688V16.7812C12.75 17.4533 13.2967 18 13.9688 18H16.5V19.7812C16.5 20.4533 17.0467 21 17.7188 21H19.7812C20.4533 21 21 20.4533 21 19.7812V17.7188C21 17.0468 20.4533 16.5 19.7812 16.5ZM14.25 14.25H16.5V16.5H14.25V14.25ZM19.5 19.5H18V18H19.5V19.5Z" fill="#535456"/>
<path d="M7.5 8.25H6.75C6.33577 8.25 6 7.91419 6 7.5V6.75C6 6.33581 6.33577 6 6.75 6H7.5C7.91423 6 8.25 6.33581 8.25 6.75V7.5C8.25 7.91419 7.91423 8.25 7.5 8.25Z" fill="#535456"/>
<path d="M17.25 8.25H16.5C16.0858 8.25 15.75 7.91419 15.75 7.5V6.75C15.75 6.33581 16.0858 6 16.5 6H17.25C17.6642 6 18 6.33581 18 6.75V7.5C18 7.91419 17.6642 8.25 17.25 8.25Z" fill="#535456"/>
<path d="M7.5 18H6.75C6.33577 18 6 17.6642 6 17.25V16.5C6 16.0858 6.33577 15.75 6.75 15.75H7.5C7.91423 15.75 8.25 16.0858 8.25 16.5V17.25C8.25 17.6642 7.91423 18 7.5 18Z" fill="#535456"/>
</svg>
