<svg width="24" height="24" viewBox="0 0 24 24" fill="none" xmlns="http://www.w3.org/2000/svg">
<path d="M7.07812 15.5156C7.07812 13.9648 5.81644 12.7031 4.26562 12.7031C2.71481 12.7031 1.45312 13.9648 1.45312 15.5156C1.45312 17.0664 2.71481 18.3281 4.26562 18.3281C5.81644 18.3281 7.07812 17.0664 7.07812 15.5156ZM4.26562 16.9219C3.49022 16.9219 2.85938 16.291 2.85938 15.5156C2.85938 14.7402 3.49022 14.1094 4.26562 14.1094C5.04103 14.1094 5.67188 14.7402 5.67188 15.5156C5.67188 16.291 5.04103 16.9219 4.26562 16.9219Z" fill="#535456"/>
<path d="M8.48438 22.5938C8.48438 21.4664 8.04717 20.4003 7.2532 19.5918C6.45309 18.7769 5.39208 18.3281 4.26562 18.3281C3.13875 18.3281 2.07103 18.7753 1.25906 19.5872C0.447094 20.3991 0 21.4669 0 22.5938V24H8.48438V22.5938ZM1.40625 22.5938C1.40625 21.0438 2.7157 19.7344 4.26562 19.7344C5.81644 19.7344 7.07812 21.0171 7.07812 22.5938H1.40625Z" fill="#535456"/>
<path d="M22.5469 15.5156C22.5469 13.9648 21.2852 12.7031 19.7344 12.7031C18.1836 12.7031 16.9219 13.9648 16.9219 15.5156C16.9219 17.0664 18.1836 18.3281 19.7344 18.3281C21.2852 18.3281 22.5469 17.0664 22.5469 15.5156ZM19.7344 16.9219C18.959 16.9219 18.3281 16.291 18.3281 15.5156C18.3281 14.7402 18.959 14.1094 19.7344 14.1094C20.5098 14.1094 21.1406 14.7402 21.1406 15.5156C21.1406 16.291 20.5098 16.9219 19.7344 16.9219Z" fill="#535456"/>
<path d="M11.2969 4.96875C11.2969 4.58105 11.6123 4.26562 12 4.26562C12.3877 4.26562 12.7031 4.58105 12.7031 4.96875C12.7031 5.19473 12.5985 5.40136 12.416 5.5357C11.7153 6.05166 11.2969 6.87872 11.2969 7.74806V8.48438H12.7031V7.74806C12.7031 7.32384 12.9075 6.92016 13.2498 6.66811C13.788 6.27183 14.1094 5.63653 14.1094 4.96875C14.1094 3.80564 13.1631 2.85938 12 2.85938C10.8369 2.85938 9.89062 3.80564 9.89062 4.96875V5.67188H11.2969V4.96875Z" fill="#535456"/>
<path d="M12 14.1094C15.4893 14.1094 18.3281 11.2706 18.3281 7.78125V6.375C18.3281 2.8598 15.4893 0 12 0C8.51067 0 5.67188 2.8598 5.67188 6.375V7.78125C5.67188 11.2706 8.51067 14.1094 12 14.1094ZM7.07812 6.375C7.07812 3.63525 9.28608 1.40625 12 1.40625C14.7139 1.40625 16.9219 3.6352 16.9219 6.375V7.78125C16.9219 10.4952 14.7139 12.7031 12 12.7031C9.28608 12.7031 7.07812 10.4952 7.07812 7.78125V6.375Z" fill="#535456"/>
<path d="M22.7409 19.5872C21.929 18.7753 20.8612 18.3281 19.7344 18.3281C18.6079 18.3281 17.5469 18.7769 16.7467 19.5918C15.9528 20.4003 15.5156 21.4664 15.5156 22.5938V24H24V22.5938C24 21.4669 23.5529 20.3992 22.7409 19.5872ZM16.9219 22.5938C16.9219 21.0171 18.1836 19.7344 19.7344 19.7344C21.2843 19.7344 22.5938 21.0438 22.5938 22.5938H16.9219Z" fill="#535456"/>
<path d="M11.2969 9.89062H12.7031V11.2969H11.2969V9.89062Z" fill="#535456"/>
</svg>
