<svg width="24" height="24" viewBox="0 0 24 24" fill="none" xmlns="http://www.w3.org/2000/svg">
<path d="M15.9797 6.41022C16.2246 6.06728 16.1465 5.58701 15.7808 5.37767C15.7319 5.3497 15.6827 5.32227 15.6333 5.29539C15.2628 5.09408 14.813 5.28019 14.65 5.669L14.6177 5.74617C14.4729 6.09145 14.6374 6.48552 14.9644 6.66789C15.2915 6.85033 15.7133 6.78309 15.931 6.47831L15.9797 6.41022Z" fill="#535456"/>
<path d="M17.9996 8.66418C18.367 8.45818 18.5012 7.99086 18.26 7.64558C18.2282 7.60013 18.196 7.55503 18.1632 7.51029C17.9145 7.17037 17.429 7.14612 17.1152 7.42707L17.0516 7.48394C16.7728 7.73362 16.7524 8.16014 16.9698 8.46483C17.1876 8.7699 17.5983 8.88923 17.9252 8.70593L17.9996 8.66418Z" fill="#535456"/>
<path d="M18.5892 10.0657C18.1842 10.1837 17.9569 10.6083 18.0244 11.0248C18.5082 14.0137 16.7013 16.9648 13.7203 17.8374C10.4913 18.7825 7.10749 16.9312 6.16235 13.7022C5.21722 10.4732 7.0686 7.08941 10.2976 6.14427C10.9501 5.95327 11.6283 5.87336 12.3039 5.9061C12.7243 5.92648 13.1197 5.65432 13.1922 5.23974C13.2649 4.82449 12.9865 4.42522 12.566 4.39447C12.3778 4.38071 12.189 4.37376 12 4.37368C7.79276 4.37912 4.38652 7.79418 4.39195 12.0015C4.39739 16.2088 7.81245 19.615 12.0197 19.6095C16.227 19.6041 19.6332 16.189 19.6278 11.9817C19.6272 11.5155 19.5838 11.0509 19.4984 10.5937C19.4211 10.1796 18.9937 9.94788 18.5892 10.0657Z" fill="#535456"/>
<path d="M23.5737 12.5874C23.8279 12.2371 23.8279 11.7629 23.5737 11.4126L22.2714 9.61825C22.1264 9.41845 22.0604 9.17208 22.0861 8.92655L22.3174 6.72168C22.3626 6.29107 22.1255 5.8803 21.73 5.70401L19.7049 4.80126C19.4795 4.70078 19.2992 4.52048 19.1987 4.29507L18.296 2.26998C18.1197 1.87452 17.7089 1.63743 17.2783 1.6826L15.0734 1.91386C14.8279 1.93961 14.5816 1.87364 14.3818 1.72863L12.5874 0.426309C12.2371 0.172057 11.7629 0.172056 11.4126 0.426309L9.61825 1.72863C9.41845 1.87364 9.17208 1.93961 8.92655 1.91386L6.72168 1.6826C6.29107 1.63743 5.8803 1.87452 5.70401 2.26998L4.80126 4.29507C4.70078 4.52048 4.52048 4.70078 4.29507 4.80126L2.26998 5.70401C1.87452 5.8803 1.63743 6.29107 1.6826 6.72168L1.91386 8.92655C1.93961 9.17208 1.87364 9.41845 1.72863 9.61825L0.426309 11.4126C0.172057 11.7629 0.172056 12.2371 0.426309 12.5874L1.72863 14.3818C1.87364 14.5816 1.93961 14.8279 1.91386 15.0735L1.6826 17.2783C1.63743 17.7089 1.87452 18.1197 2.26998 18.296L4.29507 19.1987C4.52048 19.2992 4.70078 19.4795 4.80126 19.7049L5.70401 21.73C5.8803 22.1255 6.29107 22.3626 6.72168 22.3174L8.92655 22.0861C9.17208 22.0604 9.41845 22.1264 9.61825 22.2714L11.4126 23.5737C11.7629 23.8279 12.2371 23.8279 12.5874 23.5737L14.3818 22.2714C14.5816 22.1264 14.8279 22.0604 15.0735 22.0861L17.2783 22.3174C17.7089 22.3626 18.1197 22.1255 18.296 21.73L19.1987 19.7049C19.2992 19.4795 19.4795 19.2992 19.7049 19.1987L21.73 18.296C22.1255 18.1197 22.3626 17.7089 22.3174 17.2783L22.0861 15.0734C22.0604 14.8279 22.1264 14.5816 22.2714 14.3818L23.5737 12.5874ZM18.5484 18.0427C18.3232 18.1431 18.1431 18.3232 18.0425 18.5483L17.3509 20.0971C17.1743 20.4926 16.7631 20.7294 16.3324 20.6838L14.6522 20.5057C14.4059 20.4797 14.1587 20.5458 13.9585 20.6915L12.5883 21.6883C12.2376 21.9435 11.7624 21.9435 11.4117 21.6883L10.041 20.6911C9.84104 20.5457 9.59435 20.4795 9.34848 20.5052L7.66372 20.6817C7.23338 20.7268 6.82286 20.49 6.64643 20.0949L5.95429 18.545C5.85384 18.32 5.67389 18.1401 5.44895 18.0396L3.90067 17.3482C3.50477 17.1714 3.26791 16.7597 3.31411 16.3285L3.49372 14.6528C3.52016 14.4062 3.45399 14.1585 3.30807 13.9579L2.31167 12.5883C2.05654 12.2376 2.05654 11.7624 2.31167 11.4117L3.30852 10.0415C3.45417 9.84124 3.52037 9.59412 3.49431 9.3479L3.31611 7.66445C3.27052 7.23377 3.50735 6.82269 3.9028 6.6461L5.452 5.95429C5.67694 5.85384 5.85689 5.67389 5.95734 5.44895L6.64948 3.89899C6.82592 3.50391 7.23643 3.26711 7.66677 3.31219L9.35217 3.48875C9.59765 3.51447 9.84397 3.44849 10.0437 3.30351L11.4119 2.3105C11.7626 2.05601 12.2372 2.05628 12.5876 2.31116L13.9591 3.30888C14.159 3.45431 14.4057 3.52054 14.6515 3.49478L16.3363 3.31829C16.7666 3.27321 17.1771 3.51001 17.3536 3.9051L18.0457 5.45505C18.1462 5.67999 18.3261 5.85994 18.5511 5.96039L20.0993 6.65179C20.4952 6.82858 20.7321 7.24035 20.6859 7.67145L20.5063 9.34721C20.4798 9.59383 20.546 9.84149 20.6919 10.0421L21.6883 11.4117C21.9435 11.7624 21.9435 12.2376 21.6883 12.5883L20.6911 13.959C20.5457 14.159 20.4795 14.4057 20.5052 14.6515L20.6817 16.3359C20.7268 16.7664 20.4897 17.1771 20.0944 17.3534L18.5484 18.0427Z" fill="#535456"/>
<path d="M9.26521 12C8.96742 11.7022 8.48463 11.7022 8.18684 12C7.88906 12.2978 7.88906 12.7806 8.18684 13.0784L9.76763 14.6591C10.1582 15.0497 10.7913 15.0497 11.1818 14.6591L15.0505 10.7905C15.3483 10.4927 15.3483 10.0099 15.0505 9.71211C14.7527 9.41433 14.2699 9.41433 13.9722 9.71211L11.1818 12.5024C10.7913 12.893 10.1582 12.893 9.76763 12.5024L9.26521 12Z" fill="#535456"/>
</svg>
