<svg width="24" height="17" viewBox="0 0 24 17" fill="none" xmlns="http://www.w3.org/2000/svg">
<path d="M20.7379 1.85669C20.2916 1.85669 19.9154 1.5475 19.673 1.17275C19.2168 0.46762 18.4238 0 17.5232 0C16.6225 0 15.8295 0.467681 15.3733 1.17289C15.1308 1.54758 14.7547 1.85669 14.3084 1.85669H0.703125C0.3148 1.85669 0 2.17149 0 2.55981C0 2.94814 0.3148 3.26294 0.703125 3.26294H14.3085C14.7548 3.26294 15.131 3.5721 15.3734 3.94683C15.8296 4.65191 16.6226 5.11963 17.5232 5.11963C18.4238 5.11963 19.2169 4.65185 19.6731 3.9467C19.9155 3.57202 20.2917 3.26294 20.738 3.26294H23.2969C23.6852 3.26294 24 2.94814 24 2.55981C24 2.17149 23.6852 1.85669 23.2969 1.85669H20.7379ZM17.5232 3.71338C16.8871 3.71338 16.3696 3.19592 16.3696 2.55981C16.3696 1.92371 16.8873 1.40625 17.5232 1.40625C18.1593 1.40625 18.6768 1.92371 18.6768 2.55981C18.6768 3.19592 18.1593 3.71338 17.5232 3.71338Z" fill="#535456"/>
<path d="M4.50714 5.88188C3.60655 5.88188 2.81358 6.3496 2.3574 7.05468C2.11495 7.42941 1.73874 7.73857 1.29242 7.73857H0.703125C0.3148 7.73857 0 8.05337 0 8.4417C0 8.83002 0.3148 9.14482 0.703125 9.14482H1.29239C1.73872 9.14482 2.11494 9.45401 2.3574 9.82875C2.81362 10.5339 3.60672 11.0015 4.50732 11.0015C5.40793 11.0015 6.20091 10.5339 6.65709 9.82876C6.89953 9.45401 7.27574 9.14482 7.72208 9.14482H23.2969C23.6852 9.14482 24 8.83002 24 8.4417C24 8.05337 23.6852 7.73857 23.2969 7.73857H7.72204C7.27572 7.73857 6.89951 7.42941 6.65705 7.05469C6.20082 6.3496 5.40774 5.88188 4.50714 5.88188ZM4.50714 9.59526C3.87122 9.59526 3.35376 9.07781 3.35376 8.4417C3.35376 7.80577 3.87122 7.28813 4.50714 7.28813C5.14325 7.28813 5.66071 7.80577 5.66071 8.4417C5.66071 9.07781 5.14325 9.59526 4.50714 9.59526Z" fill="#535456"/>
<path d="M12.3942 11.764C11.4936 11.764 10.7005 12.2316 10.2443 12.9367C10.0018 13.3115 9.62563 13.6207 9.17929 13.6207H0.703125C0.3148 13.6207 0 13.9355 0 14.3238C0 14.7121 0.3148 15.0269 0.703125 15.0269H9.17932C9.62565 15.0269 10.0019 15.3361 10.2443 15.7108C10.7005 16.4159 11.4936 16.8836 12.3942 16.8836C13.2947 16.8836 14.0877 16.4159 14.544 15.7108C14.7864 15.3361 15.1626 15.0269 15.6089 15.0269H23.2969C23.6852 15.0269 24 14.7121 24 14.3238C24 13.9355 23.6852 13.6207 23.2969 13.6207H15.609C15.1626 13.6207 14.7864 13.3115 14.544 12.9367C14.0878 12.2316 13.2947 11.764 12.3942 11.764ZM12.3942 15.4773C11.7581 15.4773 11.2407 14.9599 11.2407 14.3238C11.2407 13.6877 11.7581 13.1702 12.3942 13.1702C13.0302 13.1702 13.5478 13.6877 13.5478 14.3238C13.5478 14.9599 13.0303 15.4773 12.3942 15.4773Z" fill="#535456"/>
</svg>
