<svg width="34" height="36" viewBox="0 0 34 36" fill="none" xmlns="http://www.w3.org/2000/svg">
<path d="M5.56401 8.34012C8.36864 5.52973 12.0222 3.87977 15.9453 3.62834V2.10938H14.3984C13.816 2.10938 13.3437 1.63716 13.3437 1.05469C13.3437 0.472219 13.816 0 14.3984 0H19.6016C20.184 0 20.6562 0.472219 20.6562 1.05469C20.6562 1.63716 20.184 2.10938 19.6016 2.10938H18.0547V3.62834C20.7446 3.80074 23.3076 4.63078 25.5572 6.04174L26.5591 5.03782C27.0467 4.54922 27.6954 4.2802 28.3856 4.2802C29.0759 4.2802 29.7245 4.54929 30.2121 5.03782L31.7358 6.56487C32.7388 7.56984 32.7388 9.20517 31.7358 10.2102L30.7271 11.221C32.3192 13.7685 33.1718 16.7169 33.1718 19.7968C33.1718 24.1244 31.4899 28.1931 28.436 31.2534C25.3815 34.3143 21.3201 36 17 36C12.6799 36 8.61853 34.3143 5.56401 31.2534C2.51006 28.1931 0.828186 24.1244 0.828186 19.7968C0.828186 15.4692 2.51006 11.4004 5.56401 8.34012ZM30.2427 8.05493L28.7189 6.52795C28.5988 6.40765 28.4585 6.38965 28.3856 6.38965C28.3126 6.38965 28.1722 6.40758 28.0521 6.52795L27.2878 7.2938C27.6842 7.62237 28.0675 7.97105 28.4359 8.34019C28.8032 8.70827 29.1502 9.09126 29.4772 9.48726L30.2427 8.72023C30.4258 8.53678 30.4258 8.23831 30.2427 8.05493ZM17 33.8906C24.7541 33.8906 31.0624 27.5681 31.0624 19.7968C31.0624 12.0254 24.7541 5.70291 17 5.70291C9.24593 5.70291 2.93756 12.0253 2.93756 19.7968C2.93756 27.5682 9.24593 33.8906 17 33.8906Z" fill="#27292B"/>
<path d="M17 7.67995C23.6686 7.67995 29.0938 13.1155 29.0938 19.7968C29.0938 26.478 23.6686 31.9136 17 31.9136C10.3314 31.9136 4.90618 26.478 4.90618 19.7968C4.90618 13.1155 10.3314 7.67995 17 7.67995ZM15.9453 29.7484V28.5156C15.9453 27.9331 16.4175 27.4609 17 27.4609C17.5825 27.4609 18.0547 27.9331 18.0547 28.5156V29.7484C22.7203 29.2551 26.438 25.5281 26.929 20.8515H25.7188C25.1363 20.8515 24.6641 20.3792 24.6641 19.7968C24.6641 19.2143 25.1363 18.7421 25.7188 18.7421H26.929C26.438 14.0654 22.7203 10.3384 18.0547 9.84516V11.0779C18.0547 11.6604 17.5825 12.1326 17 12.1326C16.4175 12.1326 15.9453 11.6604 15.9453 11.0779V9.84516C11.2797 10.3384 7.56196 14.0654 7.07097 18.7421H8.28125C8.86372 18.7421 9.33594 19.2143 9.33594 19.7968C9.33594 20.3792 8.86372 20.8515 8.28125 20.8515H7.07104C7.56196 25.5281 11.2797 29.2551 15.9453 29.7484Z" fill="#27292B"/>
<path d="M14.3984 19.1881H15.8864V14.9224C15.8864 14.34 16.3586 13.8677 16.9411 13.8677C17.5235 13.8677 17.9957 14.34 17.9957 14.9224V20.2428C17.9957 20.8252 17.5235 21.2975 16.9411 21.2975H14.3984C13.8159 21.2975 13.3437 20.8252 13.3437 20.2428C13.3437 19.6603 13.8159 19.1881 14.3984 19.1881Z" fill="#27292B"/>
</svg>
