<svg width="35" height="35" viewBox="0 0 35 35" fill="none" xmlns="http://www.w3.org/2000/svg">
<path d="M26.2391 11.7468C25.7004 11.1787 24.8022 11.1537 24.2332 11.6938L15.1749 20.2844L10.8543 15.8484C10.3071 15.2869 9.40986 15.2746 8.84795 15.8219C8.28651 16.3687 8.27468 17.2668 8.82142 17.8283L14.1187 23.267C14.3963 23.5522 14.7653 23.696 15.1352 23.696C15.4861 23.696 15.8371 23.5664 16.1119 23.3067L26.1862 13.7527C26.7547 13.2135 26.7787 12.3153 26.2391 11.7468Z" fill="#27292B"/>
<path d="M17.5 0C7.85039 0 0 7.85039 0 17.5C0 27.1496 7.85039 35 17.5 35C27.1496 35 35 27.1496 35 17.5C35 7.85039 27.1496 0 17.5 0ZM17.5 32.1622C9.41548 32.1622 2.8378 25.5851 2.8378 17.5C2.8378 9.41548 9.41541 2.8378 17.5 2.8378C25.585 2.8378 32.1622 9.41541 32.1622 17.5C32.1622 25.585 25.585 32.1622 17.5 32.1622Z" fill="#27292B"/>
</svg>
